<svg width="201" height="40" viewBox="0 0 201 40" fill="none" xmlns="http://www.w3.org/2000/svg">
<g clip-path="url(#clip0_0_809)">
<path d="M24.2572 11.5134L28.486 11.5134L28.486 18.3786L21.6197 18.3786L21.6197 16.832L25.4083 13.0399L25.5981 12.8542L24.2572 11.5134Z" fill="#099A71"/>
<path d="M20 8L24.8549 12.8541L20 17.7082L18.9054 16.6138L18.9054 10.9884L17.0111 10.9884L20 8Z" fill="#21244B"/>
<path d="M11.514 11.5134L11.514 15.7416L12.6691 14.5866L12.8549 14.4009L16.8334 18.3786L18.3803 18.3786L18.3803 11.5134L11.514 11.5134Z" fill="#099A71"/>
<path d="M8 19.9979L12.8549 15.1438L17.7099 19.9979L16.6153 21.0923L10.9929 21.0923L10.9929 22.9863L8 19.9979Z" fill="#21244B"/>
<path d="M11.514 28.4827L11.518 21.6174L18.3803 21.6174L18.3803 23.1682L14.5877 26.9562L14.4059 27.1419L14.5877 27.3277L15.7428 28.4827L11.514 28.4827Z" fill="#099A71"/>
<path d="M20 32.0001L15.1451 27.142L20 22.2878L21.0946 23.3822L21.0946 29.0077L22.9929 29.0077L20 32.0001Z" fill="#21244B"/>
<path d="M28.486 28.4827L21.6156 28.4827L21.6197 21.6174L23.1666 21.6174L26.9593 25.4095L27.1451 25.5952L27.3309 25.4095L28.486 24.2545L28.486 28.4827Z" fill="#099A71"/>
<path d="M27.1451 24.852L22.2901 19.9979L23.3847 18.9035L29.0111 18.9035L29.0111 17.0095L32 19.9979L27.1451 24.852Z" fill="#21244B"/>
</g>
<rect x="0.5" y="0.5" width="39" height="39" rx="7.5" stroke="#C5C9D4"/>
<path d="M51.9785 15.0059C53.2682 15.0059 54.2093 15.2588 54.8018 15.7646C55.3988 16.266 55.6973 16.986 55.6973 17.9248C55.6973 18.3486 55.6266 18.752 55.4854 19.1348C55.3486 19.513 55.1253 19.848 54.8154 20.1396C54.5055 20.4268 54.0977 20.6546 53.5918 20.8232C53.0905 20.9873 52.4753 21.0693 51.7461 21.0693H50.5293V25H49.3672V15.0059H51.9785ZM51.8691 15.9971H50.5293V20.0713H51.6162C52.2542 20.0713 52.7852 20.0029 53.209 19.8662C53.6374 19.7295 53.9587 19.5085 54.1729 19.2031C54.387 18.8932 54.4941 18.4831 54.4941 17.9727C54.4941 17.3073 54.2822 16.8128 53.8584 16.4893C53.4346 16.1611 52.7715 15.9971 51.8691 15.9971ZM60.4209 17.3848C61.3141 17.3848 61.9772 17.5853 62.4102 17.9863C62.8431 18.3874 63.0596 19.0277 63.0596 19.9072V25H62.2324L62.0137 23.8926H61.959C61.7493 24.166 61.5306 24.3962 61.3027 24.583C61.0749 24.7653 60.8105 24.9043 60.5098 25C60.2135 25.0911 59.849 25.1367 59.416 25.1367C58.9603 25.1367 58.5547 25.057 58.1992 24.8975C57.8483 24.738 57.5703 24.4964 57.3652 24.1729C57.1647 23.8493 57.0645 23.4391 57.0645 22.9424C57.0645 22.195 57.3607 21.6208 57.9531 21.2197C58.5456 20.8187 59.4479 20.5999 60.6602 20.5635L61.9521 20.5088V20.0508C61.9521 19.4036 61.8132 18.9502 61.5352 18.6904C61.2572 18.4307 60.8652 18.3008 60.3594 18.3008C59.9674 18.3008 59.5938 18.3577 59.2383 18.4717C58.8828 18.5856 58.5456 18.7201 58.2266 18.875L57.8779 18.0137C58.2152 17.8405 58.6025 17.6924 59.04 17.5693C59.4775 17.4463 59.9378 17.3848 60.4209 17.3848ZM61.9385 21.3086L60.7969 21.3564C59.8626 21.3929 59.2041 21.5456 58.8213 21.8145C58.4385 22.0833 58.2471 22.4639 58.2471 22.9561C58.2471 23.3844 58.377 23.7012 58.6367 23.9062C58.8965 24.1113 59.2406 24.2139 59.6689 24.2139C60.3343 24.2139 60.8789 24.0293 61.3027 23.6602C61.7266 23.291 61.9385 22.7373 61.9385 21.999V21.3086ZM70.2441 22.9492C70.2441 23.4277 70.1234 23.8311 69.8818 24.1592C69.6449 24.4827 69.3031 24.7266 68.8564 24.8906C68.4144 25.0547 67.8857 25.1367 67.2705 25.1367C66.7464 25.1367 66.293 25.0957 65.9102 25.0137C65.5273 24.9316 65.1924 24.8154 64.9053 24.665V23.6191C65.2106 23.7695 65.5752 23.9062 65.999 24.0293C66.4229 24.1523 66.8558 24.2139 67.2979 24.2139C67.945 24.2139 68.4144 24.109 68.7061 23.8994C68.9977 23.6898 69.1436 23.4049 69.1436 23.0449C69.1436 22.8398 69.0843 22.6598 68.9658 22.5049C68.8519 22.3454 68.6582 22.1927 68.3848 22.0469C68.1113 21.8965 67.7331 21.7324 67.25 21.5547C66.7715 21.3724 66.3568 21.1924 66.0059 21.0146C65.6595 20.8324 65.3906 20.6113 65.1992 20.3516C65.0124 20.0918 64.9189 19.7546 64.9189 19.3398C64.9189 18.7064 65.1742 18.221 65.6846 17.8838C66.1995 17.542 66.874 17.3711 67.708 17.3711C68.1592 17.3711 68.5807 17.4167 68.9727 17.5078C69.3691 17.5944 69.7383 17.7129 70.0801 17.8633L69.6973 18.7725C69.3874 18.6403 69.057 18.5286 68.7061 18.4375C68.3551 18.3464 67.9974 18.3008 67.6328 18.3008C67.1087 18.3008 66.7054 18.3874 66.4229 18.5605C66.1449 18.7337 66.0059 18.9707 66.0059 19.2715C66.0059 19.5039 66.0697 19.6953 66.1973 19.8457C66.3294 19.9961 66.5391 20.1374 66.8262 20.2695C67.1133 20.4017 67.4915 20.5566 67.9609 20.7344C68.4303 20.9076 68.8359 21.0876 69.1777 21.2744C69.5195 21.4567 69.7816 21.68 69.9639 21.9443C70.1507 22.2041 70.2441 22.5391 70.2441 22.9492ZM73.2041 14.3633V17.542C73.2041 17.7243 73.1995 17.9089 73.1904 18.0957C73.1813 18.278 73.1654 18.4466 73.1426 18.6016H73.2178C73.3727 18.3372 73.5687 18.1162 73.8057 17.9385C74.0472 17.7562 74.3206 17.6195 74.626 17.5283C74.9313 17.4326 75.2549 17.3848 75.5967 17.3848C76.1982 17.3848 76.6995 17.4805 77.1006 17.6719C77.5062 17.8633 77.8092 18.1595 78.0098 18.5605C78.2148 18.9616 78.3174 19.4811 78.3174 20.1191V25H77.1963V20.1943C77.1963 19.57 77.0527 19.1029 76.7656 18.793C76.4831 18.4831 76.0479 18.3281 75.46 18.3281C74.904 18.3281 74.4596 18.4352 74.127 18.6494C73.7988 18.859 73.5618 19.1689 73.416 19.5791C73.2747 19.9893 73.2041 20.4906 73.2041 21.083V25H72.0693V14.3633H73.2041ZM83.458 17.3848C84.3512 17.3848 85.0143 17.5853 85.4473 17.9863C85.8802 18.3874 86.0967 19.0277 86.0967 19.9072V25H85.2695L85.0508 23.8926H84.9961C84.7865 24.166 84.5677 24.3962 84.3398 24.583C84.112 24.7653 83.8477 24.9043 83.5469 25C83.2507 25.0911 82.8861 25.1367 82.4531 25.1367C81.9974 25.1367 81.5918 25.057 81.2363 24.8975C80.8854 24.738 80.6074 24.4964 80.4023 24.1729C80.2018 23.8493 80.1016 23.4391 80.1016 22.9424C80.1016 22.195 80.3978 21.6208 80.9902 21.2197C81.5827 20.8187 82.485 20.5999 83.6973 20.5635L84.9893 20.5088V20.0508C84.9893 19.4036 84.8503 18.9502 84.5723 18.6904C84.2943 18.4307 83.9023 18.3008 83.3965 18.3008C83.0046 18.3008 82.6309 18.3577 82.2754 18.4717C81.9199 18.5856 81.5827 18.7201 81.2637 18.875L80.915 18.0137C81.2523 17.8405 81.6396 17.6924 82.0771 17.5693C82.5146 17.4463 82.9749 17.3848 83.458 17.3848ZM84.9756 21.3086L83.834 21.3564C82.8997 21.3929 82.2412 21.5456 81.8584 21.8145C81.4756 22.0833 81.2842 22.4639 81.2842 22.9561C81.2842 23.3844 81.4141 23.7012 81.6738 23.9062C81.9336 24.1113 82.2777 24.2139 82.7061 24.2139C83.3714 24.2139 83.916 24.0293 84.3398 23.6602C84.7637 23.291 84.9756 22.7373 84.9756 21.999V21.3086ZM99.8164 25H98.6543V20.29H93.4043V25H92.2422V15.0059H93.4043V19.2646H98.6543V15.0059H99.8164V25ZM104.697 17.3711C105.417 17.3711 106.046 17.5192 106.584 17.8154C107.122 18.1071 107.539 18.5378 107.835 19.1074C108.131 19.6771 108.279 20.3743 108.279 21.1992C108.279 22.0059 108.143 22.7031 107.869 23.291C107.6 23.8789 107.217 24.3346 106.721 24.6582C106.229 24.9772 105.647 25.1367 104.978 25.1367C104.34 25.1367 103.79 24.9954 103.33 24.7129C102.874 24.4303 102.526 24.0339 102.284 23.5234C102.043 23.013 101.922 22.4206 101.922 21.7461V21.042H107.104C107.085 20.167 106.864 19.4993 106.44 19.0391C106.021 18.5742 105.424 18.3418 104.649 18.3418C104.18 18.3418 103.763 18.3851 103.398 18.4717C103.034 18.5537 102.653 18.6813 102.257 18.8545V17.8496C102.635 17.6855 103.011 17.5648 103.385 17.4873C103.758 17.4098 104.196 17.3711 104.697 17.3711ZM107.076 21.958H103.118C103.123 22.4001 103.191 22.792 103.323 23.1338C103.455 23.471 103.658 23.7354 103.932 23.9268C104.21 24.1136 104.563 24.207 104.991 24.207C105.602 24.207 106.087 24.0088 106.447 23.6123C106.807 23.2158 107.017 22.6644 107.076 21.958ZM109.072 17.5078H110.289L111.943 21.8555C112.039 22.1107 112.128 22.3568 112.21 22.5938C112.292 22.8262 112.365 23.0495 112.429 23.2637C112.493 23.4779 112.543 23.6852 112.579 23.8857H112.627C112.691 23.6579 112.782 23.3594 112.9 22.9902C113.019 22.6165 113.146 22.236 113.283 21.8486L114.849 17.5078H116.072L112.812 26.1006C112.638 26.5609 112.436 26.9619 112.203 27.3037C111.975 27.6455 111.697 27.9076 111.369 28.0898C111.041 28.2767 110.645 28.3701 110.18 28.3701C109.965 28.3701 109.776 28.3564 109.612 28.3291C109.448 28.3063 109.307 28.279 109.188 28.2471V27.3379C109.289 27.3607 109.41 27.3812 109.551 27.3994C109.697 27.4176 109.847 27.4268 110.002 27.4268C110.285 27.4268 110.528 27.3721 110.733 27.2627C110.943 27.1579 111.123 27.0029 111.273 26.7979C111.424 26.5928 111.554 26.349 111.663 26.0664L112.073 25.0137L109.072 17.5078ZM120.071 17.3848C120.965 17.3848 121.628 17.5853 122.061 17.9863C122.493 18.3874 122.71 19.0277 122.71 19.9072V25H121.883L121.664 23.8926H121.609C121.4 24.166 121.181 24.3962 120.953 24.583C120.725 24.7653 120.461 24.9043 120.16 25C119.864 25.0911 119.499 25.1367 119.066 25.1367C118.611 25.1367 118.205 25.057 117.85 24.8975C117.499 24.738 117.221 24.4964 117.016 24.1729C116.815 23.8493 116.715 23.4391 116.715 22.9424C116.715 22.195 117.011 21.6208 117.604 21.2197C118.196 20.8187 119.098 20.5999 120.311 20.5635L121.603 20.5088V20.0508C121.603 19.4036 121.464 18.9502 121.186 18.6904C120.908 18.4307 120.516 18.3008 120.01 18.3008C119.618 18.3008 119.244 18.3577 118.889 18.4717C118.533 18.5856 118.196 18.7201 117.877 18.875L117.528 18.0137C117.866 17.8405 118.253 17.6924 118.69 17.5693C119.128 17.4463 119.588 17.3848 120.071 17.3848ZM121.589 21.3086L120.447 21.3564C119.513 21.3929 118.854 21.5456 118.472 21.8145C118.089 22.0833 117.897 22.4639 117.897 22.9561C117.897 23.3844 118.027 23.7012 118.287 23.9062C118.547 24.1113 118.891 24.2139 119.319 24.2139C119.985 24.2139 120.529 24.0293 120.953 23.6602C121.377 23.291 121.589 22.7373 121.589 21.999V21.3086ZM127.468 24.207C127.655 24.207 127.846 24.1911 128.042 24.1592C128.238 24.1273 128.397 24.0885 128.521 24.043V24.9248C128.388 24.984 128.204 25.0342 127.967 25.0752C127.734 25.1162 127.507 25.1367 127.283 25.1367C126.887 25.1367 126.527 25.0684 126.203 24.9316C125.88 24.7904 125.62 24.5534 125.424 24.2207C125.232 23.888 125.137 23.4277 125.137 22.8398V18.3965H124.07V17.8428L125.144 17.3984L125.595 15.7715H126.278V17.5078H128.473V18.3965H126.278V22.8057C126.278 23.2751 126.385 23.626 126.6 23.8584C126.818 24.0908 127.108 24.207 127.468 24.207ZM139.485 22.3408C139.485 22.9333 139.337 23.4391 139.041 23.8584C138.749 24.2731 138.339 24.5898 137.811 24.8086C137.282 25.0273 136.66 25.1367 135.944 25.1367C135.566 25.1367 135.208 25.1185 134.871 25.082C134.534 25.0456 134.224 24.9932 133.941 24.9248C133.659 24.8564 133.41 24.7721 133.196 24.6719V23.5576C133.538 23.6989 133.955 23.8311 134.447 23.9541C134.939 24.0726 135.454 24.1318 135.992 24.1318C136.493 24.1318 136.917 24.0658 137.264 23.9336C137.61 23.7969 137.872 23.6032 138.05 23.3525C138.232 23.0973 138.323 22.792 138.323 22.4365C138.323 22.0947 138.248 21.8099 138.098 21.582C137.947 21.3496 137.697 21.14 137.346 20.9531C136.999 20.7617 136.525 20.5589 135.924 20.3447C135.5 20.1943 135.126 20.0303 134.803 19.8525C134.479 19.6702 134.208 19.4652 133.989 19.2373C133.771 19.0094 133.604 18.7451 133.49 18.4443C133.381 18.1436 133.326 17.7995 133.326 17.4121C133.326 16.8789 133.461 16.4232 133.729 16.0449C134.003 15.6621 134.379 15.3704 134.857 15.1699C135.34 14.9648 135.894 14.8623 136.519 14.8623C137.052 14.8623 137.544 14.9124 137.995 15.0127C138.451 15.113 138.868 15.2474 139.246 15.416L138.884 16.4141C138.524 16.2637 138.141 16.1383 137.735 16.0381C137.334 15.9378 136.92 15.8877 136.491 15.8877C136.063 15.8877 135.701 15.9515 135.404 16.0791C135.113 16.2021 134.889 16.3776 134.734 16.6055C134.579 16.8333 134.502 17.1045 134.502 17.4189C134.502 17.7699 134.575 18.0615 134.721 18.2939C134.871 18.5264 135.108 18.7337 135.432 18.916C135.76 19.0938 136.193 19.2806 136.73 19.4766C137.318 19.6908 137.817 19.9186 138.228 20.1602C138.638 20.3971 138.95 20.6888 139.164 21.0352C139.378 21.377 139.485 21.8122 139.485 22.3408ZM142.493 25H141.358V17.5078H142.493V25ZM146.991 28.3633C146.007 28.3633 145.248 28.1787 144.715 27.8096C144.182 27.445 143.915 26.9323 143.915 26.2715C143.915 25.8021 144.063 25.401 144.359 25.0684C144.66 24.7357 145.075 24.5146 145.604 24.4053C145.408 24.3141 145.239 24.1774 145.098 23.9951C144.961 23.8128 144.893 23.6032 144.893 23.3662C144.893 23.0928 144.968 22.8535 145.118 22.6484C145.273 22.4388 145.508 22.2383 145.822 22.0469C145.43 21.8874 145.111 21.6185 144.865 21.2402C144.624 20.8574 144.503 20.4131 144.503 19.9072C144.503 19.3695 144.615 18.9115 144.838 18.5332C145.061 18.1504 145.385 17.8587 145.809 17.6582C146.232 17.4577 146.745 17.3574 147.347 17.3574C147.479 17.3574 147.611 17.3643 147.743 17.3779C147.88 17.387 148.01 17.403 148.133 17.4258C148.256 17.444 148.363 17.4668 148.454 17.4941H151.024V18.2256L149.644 18.3965C149.78 18.5742 149.894 18.7884 149.985 19.0391C150.076 19.2897 150.122 19.5677 150.122 19.873C150.122 20.6204 149.869 21.2152 149.363 21.6572C148.857 22.0947 148.162 22.3135 147.278 22.3135C147.069 22.3135 146.854 22.2952 146.636 22.2588C146.412 22.3818 146.242 22.5186 146.123 22.6689C146.009 22.8193 145.952 22.9925 145.952 23.1885C145.952 23.3343 145.995 23.4505 146.082 23.5371C146.173 23.6237 146.303 23.6875 146.472 23.7285C146.64 23.765 146.843 23.7832 147.08 23.7832H148.399C149.215 23.7832 149.84 23.9541 150.272 24.2959C150.71 24.6377 150.929 25.1367 150.929 25.793C150.929 26.6224 150.591 27.2581 149.917 27.7002C149.243 28.1423 148.267 28.3633 146.991 28.3633ZM147.025 27.4746C147.645 27.4746 148.158 27.4108 148.563 27.2832C148.974 27.1602 149.279 26.9801 149.479 26.7432C149.685 26.5107 149.787 26.2327 149.787 25.9092C149.787 25.6084 149.719 25.3805 149.582 25.2256C149.445 25.0752 149.245 24.9749 148.98 24.9248C148.716 24.8701 148.393 24.8428 148.01 24.8428H146.711C146.374 24.8428 146.08 24.8952 145.829 25C145.578 25.1048 145.385 25.2598 145.248 25.4648C145.116 25.6699 145.05 25.9251 145.05 26.2305C145.05 26.6361 145.221 26.9437 145.562 27.1533C145.904 27.3675 146.392 27.4746 147.025 27.4746ZM147.319 21.4863C147.862 21.4863 148.27 21.3496 148.543 21.0762C148.816 20.8027 148.953 20.404 148.953 19.8799C148.953 19.3193 148.814 18.9001 148.536 18.6221C148.258 18.3395 147.848 18.1982 147.306 18.1982C146.786 18.1982 146.385 18.3441 146.103 18.6357C145.825 18.9229 145.686 19.3444 145.686 19.9004C145.686 20.4108 145.827 20.8027 146.109 21.0762C146.392 21.3496 146.795 21.4863 147.319 21.4863ZM149.438 14.6709C149.407 15.04 149.302 15.3636 149.124 15.6416C148.951 15.915 148.709 16.1292 148.399 16.2842C148.09 16.4391 147.716 16.5166 147.278 16.5166C146.608 16.5166 146.1 16.3503 145.754 16.0176C145.412 15.6849 145.223 15.236 145.187 14.6709H145.897C145.925 14.9261 145.995 15.1198 146.109 15.252C146.223 15.3841 146.381 15.4753 146.581 15.5254C146.782 15.571 147.023 15.5938 147.306 15.5938C147.556 15.5938 147.782 15.5687 147.982 15.5186C148.183 15.4639 148.347 15.3704 148.475 15.2383C148.602 15.1016 148.682 14.9124 148.714 14.6709H149.438ZM158.961 21.2402C158.961 21.8555 158.881 22.4046 158.722 22.8877C158.562 23.3708 158.332 23.7786 158.031 24.1113C157.73 24.444 157.366 24.6992 156.938 24.877C156.514 25.0501 156.033 25.1367 155.495 25.1367C154.994 25.1367 154.534 25.0501 154.114 24.877C153.7 24.6992 153.34 24.444 153.034 24.1113C152.733 23.7786 152.499 23.3708 152.33 22.8877C152.166 22.4046 152.084 21.8555 152.084 21.2402C152.084 20.4199 152.223 19.7227 152.501 19.1484C152.779 18.5697 153.175 18.1299 153.69 17.8291C154.21 17.5238 154.827 17.3711 155.543 17.3711C156.227 17.3711 156.824 17.5238 157.334 17.8291C157.849 18.1344 158.248 18.5765 158.53 19.1553C158.817 19.7295 158.961 20.4245 158.961 21.2402ZM153.26 21.2402C153.26 21.8418 153.34 22.3636 153.499 22.8057C153.659 23.2477 153.905 23.5895 154.237 23.8311C154.57 24.0726 154.998 24.1934 155.522 24.1934C156.042 24.1934 156.468 24.0726 156.801 23.8311C157.138 23.5895 157.386 23.2477 157.546 22.8057C157.705 22.3636 157.785 21.8418 157.785 21.2402C157.785 20.6432 157.705 20.1283 157.546 19.6953C157.386 19.2578 157.14 18.9206 156.808 18.6836C156.475 18.4466 156.044 18.3281 155.516 18.3281C154.736 18.3281 154.164 18.5856 153.8 19.1006C153.44 19.6156 153.26 20.3288 153.26 21.2402ZM164.327 17.3711C164.478 17.3711 164.635 17.3802 164.799 17.3984C164.963 17.4121 165.109 17.4326 165.236 17.46L165.093 18.5127C164.97 18.4808 164.833 18.4557 164.683 18.4375C164.532 18.4193 164.391 18.4102 164.259 18.4102C163.958 18.4102 163.673 18.4717 163.404 18.5947C163.14 18.7132 162.908 18.8864 162.707 19.1143C162.507 19.3376 162.349 19.6087 162.235 19.9277C162.121 20.2422 162.064 20.5931 162.064 20.9805V25H160.923V17.5078H161.866L161.989 18.8887H162.037C162.192 18.6107 162.379 18.3577 162.598 18.1299C162.816 17.8975 163.069 17.7129 163.356 17.5762C163.648 17.4395 163.972 17.3711 164.327 17.3711ZM169.071 24.207C169.258 24.207 169.45 24.1911 169.646 24.1592C169.841 24.1273 170.001 24.0885 170.124 24.043V24.9248C169.992 24.984 169.807 25.0342 169.57 25.0752C169.338 25.1162 169.11 25.1367 168.887 25.1367C168.49 25.1367 168.13 25.0684 167.807 24.9316C167.483 24.7904 167.223 24.5534 167.027 24.2207C166.836 23.888 166.74 23.4277 166.74 22.8398V18.3965H165.674V17.8428L166.747 17.3984L167.198 15.7715H167.882V17.5078H170.076V18.3965H167.882V22.8057C167.882 23.2751 167.989 23.626 168.203 23.8584C168.422 24.0908 168.711 24.207 169.071 24.207ZM174.444 17.3848C175.338 17.3848 176.001 17.5853 176.434 17.9863C176.867 18.3874 177.083 19.0277 177.083 19.9072V25H176.256L176.037 23.8926H175.982C175.773 24.166 175.554 24.3962 175.326 24.583C175.098 24.7653 174.834 24.9043 174.533 25C174.237 25.0911 173.872 25.1367 173.439 25.1367C172.984 25.1367 172.578 25.057 172.223 24.8975C171.872 24.738 171.594 24.4964 171.389 24.1729C171.188 23.8493 171.088 23.4391 171.088 22.9424C171.088 22.195 171.384 21.6208 171.977 21.2197C172.569 20.8187 173.471 20.5999 174.684 20.5635L175.976 20.5088V20.0508C175.976 19.4036 175.837 18.9502 175.559 18.6904C175.281 18.4307 174.889 18.3008 174.383 18.3008C173.991 18.3008 173.617 18.3577 173.262 18.4717C172.906 18.5856 172.569 18.7201 172.25 18.875L171.901 18.0137C172.239 17.8405 172.626 17.6924 173.063 17.5693C173.501 17.4463 173.961 17.3848 174.444 17.3848ZM175.962 21.3086L174.82 21.3564C173.886 21.3929 173.228 21.5456 172.845 21.8145C172.462 22.0833 172.271 22.4639 172.271 22.9561C172.271 23.3844 172.4 23.7012 172.66 23.9062C172.92 24.1113 173.264 24.2139 173.692 24.2139C174.358 24.2139 174.902 24.0293 175.326 23.6602C175.75 23.291 175.962 22.7373 175.962 21.999V21.3086Z" fill="#51555F"/>
<g clip-path="url(#clip1_0_809)">
<path d="M191.625 17.533C191.791 17.5331 191.95 17.599 192.067 17.7163L195.263 20.913C195.36 21.0097 195.475 21.0865 195.601 21.1388C195.728 21.1912 195.863 21.2182 196 21.2182C196.137 21.2182 196.272 21.1912 196.399 21.1388C196.525 21.0865 196.64 21.0097 196.737 20.913L199.931 17.7205C200.049 17.6066 200.207 17.5436 200.371 17.545C200.535 17.5465 200.692 17.6122 200.807 17.7281C200.923 17.844 200.989 18.0007 200.99 18.1646C200.992 18.3285 200.929 18.4863 200.815 18.6042L197.623 21.7967C197.193 22.226 196.61 22.4671 196.002 22.4671C195.395 22.4671 194.812 22.226 194.382 21.7967L191.185 18.6C191.098 18.5128 191.038 18.4016 191.014 18.2805C190.99 18.1594 191.002 18.0339 191.049 17.9197C191.096 17.8055 191.176 17.7079 191.278 17.6391C191.381 17.5702 191.502 17.5333 191.625 17.533Z" fill="#51555F"/>
</g>
<defs>
<clipPath id="clip0_0_809">
<rect width="24" height="24" fill="white" transform="translate(8 8)"/>
</clipPath>
<clipPath id="clip1_0_809">
<rect width="10" height="10" fill="white" transform="translate(201 15) rotate(90)"/>
</clipPath>
</defs>
</svg>
